<svg width="35" height="35" viewBox="0 0 35 35" fill="none" xmlns="http://www.w3.org/2000/svg">
    <path d="M33.8683 21.5821C31.6145 30.6224 22.4582 36.1241 13.4168 33.8698C4.37929 31.616 -1.12243 22.4591 1.13233 13.4196C3.38512 4.37833 12.5414 -1.12382 21.58 1.12996C30.6207 3.38374 36.1221 12.5416 33.868 21.5823L33.8682 21.5821H33.8683Z" fill="#F7931A"/>
    <path d="M24.9411 15.0957C25.277 12.85 23.5673 11.6429 21.2294 10.8376L21.9878 7.79561L20.1361 7.3342L19.3978 10.2961C18.9109 10.1747 18.411 10.0603 17.9141 9.94686L18.6578 6.96542L16.8072 6.50401L16.0483 9.54501C15.6455 9.45328 15.2498 9.36263 14.8659 9.26712L14.8681 9.25755L12.3145 8.61987L11.8219 10.5977C11.8219 10.5977 13.1957 10.9126 13.1668 10.932C13.9166 11.1191 14.0522 11.6155 14.0297 12.009L13.1658 15.4745C13.2174 15.4876 13.2844 15.5066 13.3583 15.5363C13.2965 15.5209 13.2308 15.5042 13.1626 15.4879L11.9516 20.3426C11.86 20.5704 11.6274 20.9123 11.1031 20.7825C11.1217 20.8094 9.75725 20.4466 9.75725 20.4466L8.83789 22.5663L11.2476 23.167C11.6959 23.2794 12.1353 23.397 12.5679 23.5076L11.8016 26.5845L13.6512 27.0459L14.4101 24.0017C14.9154 24.1389 15.4057 24.2654 15.8858 24.3847L15.1295 27.4145L16.9813 27.876L17.7475 24.8049C20.9051 25.4024 23.2794 25.1615 24.2788 22.3054C25.0841 20.006 24.2387 18.6796 22.5775 17.8147C23.7874 17.5357 24.6988 16.7399 24.9418 15.096L24.9412 15.0956L24.9411 15.0957ZM20.7103 21.0284C20.138 23.3279 16.2664 22.0849 15.0112 21.7732L16.0281 17.6968C17.2832 18.0102 21.3084 18.6303 20.7104 21.0284H20.7103ZM21.283 15.0624C20.761 17.154 17.5386 16.0914 16.4933 15.8308L17.4152 12.1338C18.4605 12.3944 21.8268 12.8807 21.2832 15.0624H21.283Z" fill="white"/>
</svg>
