<svg width="32" height="32" viewBox="0 0 32 32" fill="none" xmlns="http://www.w3.org/2000/svg">
    <path d="M25.7864 19.32L24.4531 17.1067C24.1731 16.6133 23.9198 15.68 23.9198 15.1333V11.76C23.9198 8.62665 22.0798 5.91999 19.4265 4.65332C18.7331 3.42666 17.4531 2.66666 15.9865 2.66666C14.5331 2.66666 13.2265 3.45332 12.5332 4.69332C9.93317 5.98666 8.13317 8.66665 8.13317 11.76V15.1333C8.13317 15.68 7.87984 16.6133 7.59984 17.0933L6.25318 19.32C5.71984 20.2133 5.59984 21.2 5.93318 22.1067C6.25318 23 7.01318 23.6933 7.99984 24.0267C10.5865 24.9067 13.3065 25.3333 16.0265 25.3333C18.7465 25.3333 21.4665 24.9067 24.0531 24.04C24.9865 23.7333 25.7065 23.0267 26.0531 22.1067C26.3998 21.1867 26.3064 20.1733 25.7864 19.32Z" fill="#E9E9E9"/>
    <path d="M19.7728 26.68C19.2128 28.2267 17.7328 29.3333 15.9995 29.3333C14.9462 29.3333 13.9062 28.9067 13.1728 28.1467C12.7462 27.7467 12.4262 27.2133 12.2395 26.6667C12.4128 26.6933 12.5862 26.7067 12.7728 26.7333C13.0795 26.7733 13.3995 26.8133 13.7195 26.84C14.4795 26.9067 15.2528 26.9467 16.0262 26.9467C16.7862 26.9467 17.5462 26.9067 18.2928 26.84C18.5728 26.8133 18.8528 26.8 19.1195 26.76C19.3328 26.7333 19.5462 26.7067 19.7728 26.68Z" fill="#E9E9E9"/>
</svg>
