<svg width="34" height="34" viewBox="0 0 34 34" fill="none" xmlns="http://www.w3.org/2000/svg">
    <path d="M18.4874 23.0211H15.8241C13.9399 23.0211 12.3958 21.4345 12.3958 19.4795C12.3958 18.8986 12.8774 18.417 13.4583 18.417C14.0391 18.417 14.5208 18.8986 14.5208 19.4795C14.5208 20.2586 15.1016 20.8961 15.8241 20.8961H18.4874C19.0399 20.8961 19.4791 20.4003 19.4791 19.7911C19.4791 19.0261 19.2666 18.9128 18.7849 18.7428L14.5208 17.2553C13.6141 16.9295 12.3958 16.2778 12.3958 14.1953C12.3958 12.4245 13.7983 10.9653 15.5124 10.9653H18.1758C20.0599 10.9653 21.6041 12.552 21.6041 14.507C21.6041 15.0878 21.1224 15.5695 20.5416 15.5695C19.9608 15.5695 19.4791 15.0878 19.4791 14.507C19.4791 13.7278 18.8983 13.0903 18.1758 13.0903H15.5124C14.9599 13.0903 14.5208 13.5862 14.5208 14.1953C14.5208 14.9603 14.7333 15.0736 15.2149 15.2436L19.4791 16.7311C20.3858 17.057 21.6041 17.7086 21.6041 19.7911C21.6041 21.5761 20.2016 23.0211 18.4874 23.0211Z" fill="white"/>
    <path d="M17 24.4375C16.4192 24.4375 15.9375 23.9558 15.9375 23.375V10.625C15.9375 10.0442 16.4192 9.5625 17 9.5625C17.5808 9.5625 18.0625 10.0442 18.0625 10.625V23.375C18.0625 23.9558 17.5808 24.4375 17 24.4375Z" fill="white"/>
    <path d="M16.9999 32.2292C8.59909 32.2292 1.77075 25.4008 1.77075 17C1.77075 8.59916 8.59909 1.77083 16.9999 1.77083C17.5808 1.77083 18.0624 2.25249 18.0624 2.83333C18.0624 3.41416 17.5808 3.89583 16.9999 3.89583C9.77492 3.89583 3.89575 9.775 3.89575 17C3.89575 24.225 9.77492 30.1042 16.9999 30.1042C24.2249 30.1042 30.1041 24.225 30.1041 17C30.1041 16.4192 30.5858 15.9375 31.1666 15.9375C31.7474 15.9375 32.2291 16.4192 32.2291 17C32.2291 25.4008 25.4008 32.2292 16.9999 32.2292Z" fill="#A0A0A0"/>
    <path d="M31.1667 9.5625C30.5858 9.5625 30.1042 9.08083 30.1042 8.5V3.89583H25.5C24.9192 3.89583 24.4375 3.41416 24.4375 2.83333C24.4375 2.25249 24.9192 1.77083 25.5 1.77083H31.1667C31.7475 1.77083 32.2292 2.25249 32.2292 2.83333V8.5C32.2292 9.08083 31.7475 9.5625 31.1667 9.5625Z" fill="white"/>
    <path d="M24.0826 10.9798C23.8135 10.9798 23.5443 10.8806 23.3318 10.6681C22.921 10.2573 22.921 9.57727 23.3318 9.16644L30.4151 2.0831C30.826 1.67227 31.506 1.67227 31.9168 2.0831C32.3276 2.49394 32.3276 3.17394 31.9168 3.58477L24.8335 10.6681C24.621 10.8806 24.3518 10.9798 24.0826 10.9798Z" fill="white"/>
</svg>
